<svg xmlns="http://www.w3.org/2000/svg" width="141" height="140" viewBox="0 0 141 140" fill="none"><g clip-path="url(#clip0)"><path d="M96.503 128.333C95.9271 128.333 95.3641 128.163 94.8851 127.843L61.7991 105.787L43.0715 123.179C42.6554 123.565 42.1357 123.821 41.5761 123.916C41.0165 124.012 40.4413 123.941 39.9211 123.715C39.4008 123.488 38.958 123.114 38.6469 122.639C38.3358 122.164 38.17 121.609 38.1697 121.042V89.1291L1.64004 66.6503C1.15778 66.3531 0.772501 65.9219 0.531231 65.4093C0.28996 64.8968 0.20314 64.3251 0.28137 63.764C0.359601 63.203 0.599497 62.6768 0.971769 62.2498C1.34404 61.8228 1.83258 61.5134 2.37775 61.3595L136.541 23.4428C137.068 23.2941 137.626 23.2965 138.151 23.4498C138.677 23.6031 139.148 23.9012 139.512 24.3098C139.876 24.7185 140.118 25.2213 140.209 25.7609C140.301 26.3004 140.239 26.8548 140.031 27.3608L99.2003 126.527C98.9803 127.062 98.6065 127.519 98.1262 127.84C97.6459 128.162 97.0809 128.334 96.503 128.333V128.333ZM61.503 99.1666C62.0789 99.1661 62.6419 99.3367 63.1208 99.6566L95.1613 121.016L132.352 30.6891L10.3587 65.1663L41.0321 84.0421L93.9138 49.1574C94.5597 48.7314 95.3484 48.5793 96.1063 48.7348C96.8643 48.8902 97.5295 49.3404 97.9555 49.9863C98.3816 50.6322 98.5336 51.4209 98.3782 52.1788C98.2227 52.9368 97.7726 53.602 97.1267 54.0281L44.003 89.0693V114.354L59.5177 99.9455C60.0572 99.4442 60.7665 99.1659 61.503 99.1666V99.1666Z" fill="#333232"></path></g><defs><clipPath id="clip0"><rect width="140" height="140" fill="white" transform="translate(0.25)"></rect></clipPath></defs></svg>