<svg xmlns="http://www.w3.org/2000/svg" width="141" height="140" viewBox="0 0 141 140" fill="none"><g clip-path="url(#clip0)"><path d="M44 43.75V37.9167C50.4167 37.9167 55.6667 32.6667 55.6667 26.25H61.5C61.5 35.875 53.625 43.75 44 43.75Z" fill="#333232"></path><path d="M64.4166 108.791H20.6666C12.4999 108.791 6.08325 102.375 6.08325 94.208V65.6246C6.08325 58.333 10.7499 51.6246 17.4583 49.2913L32.3333 44.9163V39.3746C28.5416 35.8746 26.4999 31.208 26.4999 26.2496V18.083C26.2083 9.04129 33.2083 1.16629 42.2499 -0.000375906C51.8749 -0.875376 60.6249 6.12462 61.4999 15.7496C61.4999 16.333 61.4999 16.9163 61.4999 17.4996V26.2496C61.4999 31.208 59.4583 35.8746 55.6666 39.3746V44.9163L63.8333 47.5413C65.2916 48.1246 66.1666 49.583 65.8749 51.0413C65.5833 52.4996 63.8333 53.3746 62.3749 53.083L51.8749 49.583C50.7083 49.2913 49.8333 48.1246 49.8333 46.6663V37.9163C49.8333 37.0413 50.1249 36.1663 50.9999 35.583C53.9166 33.5413 55.6666 30.0413 55.6666 26.2496V17.4996C55.6666 17.208 55.6666 16.6246 55.6666 16.333C55.0833 9.91629 49.2499 5.24962 42.8333 5.83296C36.7083 6.70796 32.3333 11.958 32.3333 18.083V26.2496C32.3333 29.7496 34.0833 33.2496 36.9999 35.583C37.8749 36.1663 38.1666 37.0413 38.1666 37.9163V46.958C38.1666 48.1246 37.2916 49.2913 36.1249 49.8746L19.4999 54.833C15.1249 56.2913 11.9166 60.6663 11.9166 65.6246V94.208C11.9166 99.1663 15.7083 102.958 20.6666 102.958H63.2499L70.2499 95.958V94.208H23.5833C21.8333 94.208 20.6666 93.0413 20.6666 91.2913V72.9163C20.6666 71.1663 21.8333 69.9996 23.5833 69.9996C25.3333 69.9996 26.4999 71.1663 26.4999 72.9163V88.3746H73.1666C74.9166 88.3746 76.0833 89.5413 76.0833 91.2913V97.1246C76.0833 97.9996 75.7916 98.583 75.2083 99.1663L66.4583 107.916C65.8749 108.5 65.2916 108.791 64.4166 108.791Z" fill="#333232"></path><path d="M59.1667 129.207H20.6667C18.9167 129.207 17.75 128.04 17.75 126.29V105.874C17.75 104.124 18.9167 102.957 20.6667 102.957C22.4167 102.957 23.5833 104.124 23.5833 105.874V123.374H59.1667C60.9167 123.374 62.0833 124.54 62.0833 126.29C62.0833 128.04 60.9167 129.207 59.1667 129.207Z" fill="#333232"></path><path d="M83.3749 120.457H67.3333V107.915L71.1249 102.957H89.4999V111.415L83.3749 120.457ZM73.1666 114.624H80.4583L83.6666 109.665V108.79H74.0416L73.1666 109.957V114.624Z" fill="#333232"></path><path d="M131.5 108.791H64.4167V102.958H125.667V44.6243H67.3333V92.4577H61.5V38.791H131.5V108.791Z" fill="#333232"></path><path d="M96.4998 97.1237C83.6665 97.1237 73.1665 86.6237 73.1665 73.7904C73.1665 60.957 83.6665 50.457 96.4998 50.457C109.333 50.457 119.833 60.957 119.833 73.7904C119.833 86.6237 109.333 97.1237 96.4998 97.1237ZM96.4998 56.2904C86.8748 56.2904 78.9998 64.1654 78.9998 73.7904C78.9998 83.4154 86.8748 91.2904 96.4998 91.2904C106.125 91.2904 114 83.4154 114 73.7904C114 64.1654 106.125 56.2904 96.4998 56.2904Z" fill="#333232"></path><path d="M90.6667 65.041C92.4167 65.041 93.5833 66.2077 93.5833 67.9577C93.5833 69.7077 92.4167 70.8743 90.6667 70.8743C88.9167 70.8743 87.75 69.7077 87.75 67.9577C87.75 66.4993 88.9167 65.041 90.6667 65.041Z" fill="#333232"></path><path d="M102.333 65.041C104.083 65.041 105.25 66.2077 105.25 67.9577C105.25 69.7077 104.083 70.8743 102.333 70.8743C100.583 70.8743 99.4165 69.7077 99.4165 67.9577C99.4165 66.4993 100.583 65.041 102.333 65.041Z" fill="#333232"></path><path d="M96.4999 85.4577C90.0832 85.4577 84.8333 80.2077 84.8333 73.791H90.6666C90.6666 76.9993 93.2916 79.6243 96.4999 79.6243C99.7082 79.6243 102.333 76.9993 102.333 73.791H108.167C108.167 80.2077 102.917 85.4577 96.4999 85.4577Z" fill="#333232"></path><path d="M70.2499 139.999C68.4999 139.999 67.3333 138.832 67.3333 137.082V105.874C67.3333 104.124 68.4999 102.957 70.2499 102.957C71.9999 102.957 73.1666 104.124 73.1666 105.874V137.082C73.1666 138.832 71.9999 139.999 70.2499 139.999Z" fill="#333232"></path><path d="M20.6667 140C18.9167 140 17.75 138.833 17.75 137.083V126.292C17.75 124.542 18.9167 123.375 20.6667 123.375C22.4167 123.375 23.5833 124.542 23.5833 126.292V137.083C23.5833 138.833 22.4167 140 20.6667 140Z" fill="#333232"></path></g><defs><clipPath id="clip0"><rect width="140" height="140" fill="white" transform="translate(0.25)"></rect></clipPath></defs></svg>