<svg xmlns="http://www.w3.org/2000/svg" width="141" height="141" viewBox="0 0 141 141" fill="none"><g clip-path="url(#clip0)"><path d="M140.125 99.6667H134.292V6.33333H5.95833V12.1667H105.125V18H0.125V0.5H140.125V99.6667Z" fill="#333232"></path><path d="M58.4583 140.5H0.125V23.833H5.95833V134.666H58.4583V140.5Z" fill="#333232"></path><path d="M116.792 12.167H110.958V18.0003H116.792V12.167Z" fill="#333232"></path><path d="M128.458 12.167H122.625V18.0003H128.458V12.167Z" fill="#333232"></path><path d="M70.4167 140.5C69.5417 140.5 68.9583 140.208 68.375 139.625L61.375 132.333C59.625 130.583 59.625 127.375 61.375 125.625L63.4167 123.875C67.5 120.083 73.9167 120.375 78 124.167L85.2917 130.875L86.75 129.417C87.0417 129.125 87.3333 128.542 87.3333 127.958V82.7499C87.3333 77.4999 91.7083 73.4166 96.9583 73.9999C101.625 74.5832 104.833 78.3749 105.125 83.0416V102C106 101.708 107.167 101.417 108.333 101.417C110.667 101.417 112.708 102.292 114.167 103.75C115.917 102.292 118.25 101.417 120.875 101.708C123.792 102 126.417 103.75 127.583 106.375C128.75 105.792 129.917 105.5 131.375 105.5C131.667 105.5 131.958 105.5 132.25 105.5C136.917 106.083 140.125 109.875 140.125 114.542V137.875C140.125 139.625 138.958 140.792 137.208 140.792C135.458 140.792 134.292 139.625 134.292 137.875V114.542C134.292 112.792 133.125 111.625 131.667 111.333C131.667 111.333 131.667 111.333 131.375 111.333C129.917 111.333 128.75 112.208 128.458 113.667V118.333H122.625V114.542C122.625 114.25 122.625 113.667 122.625 113.375V111.042C122.625 109.583 121.458 108.125 120 107.833C118.25 107.833 117.083 109 116.792 110.75C116.792 110.75 116.792 110.75 116.792 111.042H110.958V110.75V110.458C110.958 109 109.5 107.833 108.042 107.833C107.167 107.833 106.583 108.125 106 108.708C105.417 108.417 105.125 109.292 105.125 109.875V117.75H99.2917V82.7499C99.2917 80.9999 98.125 79.8332 96.375 79.5416C94.625 79.5416 93.1667 80.7082 93.1667 82.4582V127.667C93.1667 129.708 92.2917 131.458 91.125 132.917L89.0833 134.958C87.0417 137 84.125 137 82.0833 134.958L74.2083 127.667C72.4583 125.917 69.5417 125.917 67.5 127.667L66.3333 128.833L72.4583 135.542C73.625 136.708 73.3333 138.458 72.1667 139.625C71.5833 140.208 71 140.5 70.4167 140.5Z" fill="#333232"></path><path d="M70.1248 44.25H64.2915V58.8333H70.1248V44.25Z" fill="#333232"></path><path d="M67.2083 47.167C62.2499 47.167 58.4583 43.3753 58.4583 38.417C58.4583 33.4587 62.2499 29.667 67.2083 29.667C72.1666 29.667 75.9583 33.4587 75.9583 38.417C75.9583 43.3753 72.1666 47.167 67.2083 47.167ZM67.2083 35.5003C65.4583 35.5003 64.2916 36.667 64.2916 38.417C64.2916 40.167 65.4583 41.3337 67.2083 41.3337C68.9583 41.3337 70.1249 40.167 70.1249 38.417C70.1249 36.667 68.9583 35.5003 67.2083 35.5003Z" fill="#333232"></path><path d="M52.6248 70.5H38.0415V76.3333H52.6248V70.5Z" fill="#333232"></path><path d="M32.2083 82.167C27.2499 82.167 23.4583 78.3753 23.4583 73.417C23.4583 68.4587 27.2499 64.667 32.2083 64.667C37.1666 64.667 40.9582 68.4587 40.9582 73.417C40.9582 78.3753 37.1666 82.167 32.2083 82.167ZM32.2083 70.5003C30.4583 70.5003 29.2916 71.667 29.2916 73.417C29.2916 75.167 30.4583 76.3337 32.2083 76.3337C33.9583 76.3337 35.1249 75.167 35.1249 73.417C35.1249 71.667 33.9583 70.5003 32.2083 70.5003Z" fill="#333232"></path><path d="M89.8937 46.6474L75.457 61.084L79.5818 65.2087L94.0184 50.7721L89.8937 46.6474Z" fill="#333232"></path><path d="M96.083 53.291C93.7497 53.291 91.708 52.416 89.958 50.666C88.208 48.916 87.333 46.8744 87.333 44.541C87.333 42.2077 88.208 39.8743 89.958 38.416C93.458 34.916 98.9997 34.916 102.208 38.416C103.958 40.166 104.833 42.2077 104.833 44.541C104.833 46.8744 103.958 49.2077 102.208 50.666C100.458 52.416 98.4163 53.291 96.083 53.291ZM96.083 41.6244C95.208 41.6244 94.6247 41.916 94.0413 42.4993C93.458 43.0827 93.1663 43.666 93.1663 44.541C93.1663 45.416 93.458 45.9994 94.0413 46.5827C95.208 47.7494 96.958 47.7494 98.1247 46.5827C98.708 45.9994 98.9997 45.416 98.9997 44.541C98.9997 43.666 98.708 43.0827 98.1247 42.4993C97.5413 41.916 96.958 41.6244 96.083 41.6244Z" fill="#333232"></path><path d="M54.8331 81.622L40.3965 96.0586L44.5212 100.183L58.9579 85.7467L54.8331 81.622Z" fill="#333232"></path><path d="M38.3335 111.043C36.0002 111.043 33.6668 110.168 32.2085 108.418C28.7085 104.918 28.7085 99.3763 32.2085 96.168C35.7085 92.668 41.2502 92.668 44.4585 96.168C47.9585 99.668 47.9585 105.21 44.4585 108.418C43.0002 110.168 40.6668 111.043 38.3335 111.043ZM38.3335 99.3763C37.4585 99.3763 36.8752 99.668 36.2918 100.251C35.1252 101.418 35.1252 103.168 36.2918 104.335C37.4585 105.501 39.2085 105.501 40.3752 104.335C41.5418 103.168 41.5418 101.418 40.3752 100.251C39.7918 99.668 39.2085 99.3763 38.3335 99.3763Z" fill="#333232"></path><path d="M70.1248 88H64.2915V102.583H70.1248V88Z" fill="#333232"></path><path d="M67.2083 117.167C62.2499 117.167 58.4583 113.375 58.4583 108.417C58.4583 103.459 62.2499 99.667 67.2083 99.667C72.1666 99.667 75.9583 103.459 75.9583 108.417C75.9583 113.375 72.1666 117.167 67.2083 117.167ZM67.2083 105.5C65.4583 105.5 64.2916 106.667 64.2916 108.417C64.2916 110.167 65.4583 111.334 67.2083 111.334C68.9583 111.334 70.1249 110.167 70.1249 108.417C70.1249 106.667 68.9583 105.5 67.2083 105.5Z" fill="#333232"></path><path d="M67.2083 90.917C57.5833 90.917 49.7083 83.042 49.7083 73.417C49.7083 63.792 57.5833 55.917 67.2083 55.917C76.8333 55.917 84.7083 63.792 84.7083 73.417C84.7083 83.042 76.8333 90.917 67.2083 90.917ZM67.2083 61.7503C60.7916 61.7503 55.5416 67.0003 55.5416 73.417C55.5416 79.8337 60.7916 85.0837 67.2083 85.0837C73.6249 85.0837 78.8749 79.8337 78.8749 73.417C78.8749 67.0003 73.6249 61.7503 67.2083 61.7503Z" fill="#333232"></path><path d="M44.5644 46.6057L40.4397 50.7305L54.8763 65.1671L59.0011 61.0423L44.5644 46.6057Z" fill="#333232"></path><path d="M38.3335 53.292C36.0002 53.292 33.9585 52.417 32.2085 50.667C30.4585 48.917 29.5835 46.8753 29.5835 44.542C29.5835 42.2087 30.4585 39.8753 32.2085 38.417C35.4168 35.2087 41.2502 35.2087 44.4585 38.417C46.2085 40.167 47.0835 42.2087 47.0835 44.542C47.0835 46.8753 46.2085 49.2087 44.4585 50.667C42.7085 52.417 40.6668 53.292 38.3335 53.292ZM38.3335 41.6253C37.4585 41.6253 36.8752 41.917 36.2918 42.5003C35.7085 43.0837 35.4168 43.667 35.4168 44.542C35.4168 45.417 35.7085 46.0003 36.2918 46.5837C37.4585 47.7503 39.2085 47.7503 40.3752 46.5837C40.9585 46.0003 41.2502 45.417 41.2502 44.542C41.2502 43.667 40.9585 43.0837 40.3752 42.5003C39.7918 41.917 39.2085 41.6253 38.3335 41.6253Z" fill="#333232"></path><path d="M82.0834 91.2083C81.2084 91.2083 80.6251 90.9167 80.0417 90.3333L75.6667 85.9583C74.5001 84.7917 74.5001 83.0417 75.6667 81.875C76.8334 80.7083 78.5834 80.7083 79.7501 81.875L84.1251 86.25C85.2917 87.4167 85.2917 89.1667 84.1251 90.3333C83.5417 90.9167 82.6667 91.2083 82.0834 91.2083Z" fill="#333232"></path></g><defs><clipPath id="clip0"><rect width="140" height="140" fill="white" transform="translate(0.125 0.5)"></rect></clipPath></defs></svg>